<?xml version="1.0"?><svg xmlns="http://www.w3.org/2000/svg"  viewBox="0 0 100 100" width="100px" height="100px">    <path d="M 50 14 C 30.149 14 14 30.149 14 50 C 14 69.851 30.149 86 50 86 C 69.851 86 86 69.851 86 50 C 86 30.149 69.851 14 50 14 z M 50 16 C 68.748 16 84 31.252 84 50 C 84 68.748 68.748 84 50 84 C 31.252 84 16 68.748 16 50 C 16 31.252 31.252 16 50 16 z M 50 19 C 32.906 19 19 32.907 19 50 C 19 67.093 32.906 81 50 81 C 67.094 81 81 67.093 81 50 C 81 41.28 77.295938 32.914875 70.835938 27.046875 C 70.631938 26.861875 70.317859 26.876078 70.130859 27.080078 C 69.944859 27.285078 69.959063 27.601109 70.164062 27.787109 C 76.415062 33.465109 80 41.561 80 50 C 80 66.542 66.542 80 50 80 C 33.458 80 20 66.542 20 50 C 20 33.458 33.458 20 50 20 C 53.551 20 57.025125 20.613219 60.328125 21.824219 C 60.586125 21.920219 60.875703 21.787344 60.970703 21.527344 C 61.065703 21.267344 60.931875 20.981719 60.671875 20.886719 C 57.258875 19.635719 53.668 19 50 19 z M 63.529297 22.144531 C 63.334859 22.133141 63.142281 22.235125 63.050781 22.421875 C 62.928781 22.669875 63.030344 22.968797 63.277344 23.091797 C 63.945344 23.421797 64.606141 23.77925 65.244141 24.15625 C 65.324141 24.20425 65.413 24.226562 65.5 24.226562 C 65.671 24.226562 65.836687 24.139422 65.929688 23.982422 C 66.069688 23.744422 65.990906 23.437875 65.753906 23.296875 C 65.094906 22.905875 64.409703 22.536313 63.720703 22.195312 C 63.659203 22.165312 63.594109 22.148328 63.529297 22.144531 z M 67.414062 24.525391 C 67.288187 24.547266 67.170797 24.616469 67.091797 24.730469 C 66.932797 24.956469 66.986891 25.268734 67.212891 25.427734 C 67.545891 25.661734 67.873312 25.899484 68.195312 26.146484 C 68.286313 26.215484 68.394 26.25 68.5 26.25 C 68.65 26.25 68.799438 26.182688 68.898438 26.054688 C 69.065438 25.834688 69.024687 25.520516 68.804688 25.353516 C 68.470687 25.098516 68.132109 24.848422 67.787109 24.607422 C 67.673609 24.528922 67.539938 24.503516 67.414062 24.525391 z M 66.570312 38 C 65.920313 37.997 65.269484 38.224359 64.771484 38.693359 L 47.474609 56.064453 L 37.181641 45.650391 C 36.164641 44.725391 34.580391 44.799359 33.650391 45.818359 C 33.201391 46.312359 32.972906 46.952141 33.003906 47.619141 C 33.034906 48.286141 33.323781 48.900031 33.800781 49.332031 L 45.816406 61.349609 C 46.277406 61.769609 46.876 62 47.5 62 C 48.141 62 48.749563 61.758594 49.226562 61.308594 L 68.216797 42.318359 C 68.702797 41.859359 68.979047 41.237313 68.998047 40.570312 C 69.017047 39.902313 68.775406 39.268203 68.316406 38.783203 C 67.857406 38.297203 67.238313 38.019 66.570312 38 z M 66.541016 39.001953 C 66.942016 39.013953 67.314844 39.178703 67.589844 39.470703 C 67.864844 39.761703 68.009047 40.142969 67.998047 40.542969 C 67.987047 40.943969 67.821531 41.316563 67.519531 41.601562 L 48.529297 60.591797 C 47.976297 61.111797 47.033813 61.103953 46.507812 60.626953 L 34.490234 48.609375 C 34.194234 48.340375 34.020953 47.972266 34.001953 47.572266 C 33.982953 47.172266 34.121625 46.788187 34.390625 46.492188 C 34.689625 46.164188 35.100766 45.998047 35.509766 45.998047 C 35.863766 45.998047 36.215234 46.122094 36.490234 46.371094 L 47.119141 57.125 C 47.212141 57.219 47.339656 57.273438 47.472656 57.273438 L 47.474609 57.273438 C 47.606609 57.273437 47.734125 57.220953 47.828125 57.126953 L 65.470703 39.410156 C 65.761703 39.134156 66.149016 38.982953 66.541016 39.001953 z"/></svg>